<mxfile host="app.diagrams.net" modified="2023-08-03T08:29:23.307Z" agent="Mozilla/5.0 (Windows NT 10.0; Win64; x64; rv:109.0) Gecko/20100101 Firefox/115.0" version="21.6.3" etag="49DF6KGxhm3sgB8igg4v" type="github">
  <diagram name="Page-1" id="oaesOLfo98a0Jc2gtvRf">
    <mxGraphModel>
      <root>
        <mxCell id="0" />
        <mxCell id="1" parent="0" />
      </root>
    </mxGraphModel>
  </diagram>
</mxfile>
